static_01
version=1
nRows=11
nColumns=46
inDegrees=yes
endheader
time	ground_force3_vx	ground_force3_vy	ground_force3_vz	ground_force3_px	ground_force3_py	ground_force3_pz	ground_torque3_x	ground_torque3_y	ground_torque3_z	ground_force5_vx	ground_force5_vy	ground_force5_vz	ground_force5_px	ground_force5_py	ground_force5_pz	ground_torque5_x	ground_torque5_y	ground_torque5_z	ground_force4_vx	ground_force4_vy	ground_force4_vz	ground_force4_px	ground_force4_py	ground_force4_pz	ground_torque4_x	ground_torque4_y	ground_torque4_z	ground_force1_vx	ground_force1_vy	ground_force1_vz	ground_force1_px	ground_force1_py	ground_force1_pz	ground_torque1_x	ground_torque1_y	ground_torque1_z	ground_force2_vx	ground_force2_vy	ground_force2_vz	ground_force2_px	ground_force2_py	ground_force2_pz	ground_torque2_x	ground_torque2_y	ground_torque2_z
0.621000	-0.000000	-0.000000	0.000000	0.200000	0.000000	-0.300000	0.000000	0.000000	-0.000000	1.341535	506.207123	65.233986	0.209362	0.000000	-1.398301	0.000026	-1.696060	0.000003	-0.330090	455.004639	-62.119526	0.218129	0.000000	-0.968478	0.000038	1.477046	0.000006	-0.000000	-0.000000	0.000000	0.200000	0.000000	0.920000	0.000000	0.000000	-0.000000	-0.000000	-0.000000	0.000000	0.200000	0.000000	0.320000	0.000000	0.000000	-0.000000	
0.621500	-0.000000	-0.000000	0.000000	0.200000	0.000000	-0.300000	0.000000	0.000000	-0.000000	1.260420	506.688782	65.072945	0.209665	0.000000	-1.398612	0.000024	-1.681018	0.000005	-0.814762	455.006836	-61.796417	0.217916	0.000000	-0.968312	0.000035	1.561756	0.000004	-0.000000	-0.000000	0.000000	0.200000	0.000000	0.920000	0.000000	0.000000	-0.000000	-0.000000	-0.000000	0.000000	0.200000	0.000000	0.320000	0.000000	0.000000	-0.000000	
0.622000	-0.000000	-0.000000	0.000000	0.200000	0.000000	-0.300000	0.000000	0.000000	-0.000000	1.179304	507.170471	64.911903	0.209968	0.000000	-1.398923	0.000020	-1.665790	0.000005	-1.299434	455.009033	-61.473312	0.217703	0.000000	-0.968147	0.000010	1.646444	0.000003	-0.000000	-0.000000	0.000000	0.200000	0.000000	0.920000	0.000000	0.000000	-0.000000	-0.000000	-0.000000	0.000000	0.200000	0.000000	0.320000	0.000000	0.000000	-0.000000	
0.622500	-0.000000	-0.000000	0.000000	0.200000	0.000000	-0.300000	0.000000	0.000000	-0.000000	1.099207	506.690125	64.992172	0.209932	0.000000	-1.398753	0.000051	-1.730051	0.000000	-0.813217	455.807434	-61.474331	0.217861	0.000000	-0.967681	0.000021	1.616840	0.000008	-0.000000	-0.000000	0.000000	0.200000	0.000000	0.920000	0.000000	0.000000	-0.000000	-0.000000	-0.000000	0.000000	0.200000	0.000000	0.320000	0.000000	0.000000	-0.000000	
0.623000	-0.000000	-0.000000	0.000000	0.200000	0.000000	-0.300000	0.000000	0.000000	-0.000000	1.019110	506.209778	65.072433	0.209896	0.000000	-1.398582	0.000020	-1.794330	-0.000000	-0.327001	456.605804	-61.475349	0.218019	0.000000	-0.967216	0.000018	1.587656	0.000006	-0.000000	-0.000000	0.000000	0.200000	0.000000	0.920000	0.000000	0.000000	-0.000000	-0.000000	-0.000000	0.000000	0.200000	0.000000	0.320000	0.000000	0.000000	-0.000000	
0.623500	-0.000000	-0.000000	0.000000	0.200000	0.000000	-0.300000	0.000000	0.000000	-0.000000	0.778055	507.006836	64.992172	0.209620	0.000000	-1.398812	0.000043	-1.838798	0.000004	-0.813217	456.767456	-61.636395	0.217827	0.000000	-0.967554	0.000011	1.578795	0.000002	-0.000000	-0.000000	0.000000	0.200000	0.000000	0.920000	0.000000	0.000000	-0.000000	-0.000000	-0.000000	0.000000	0.200000	0.000000	0.320000	0.000000	0.000000	-0.000000	
0.624000	-0.000000	-0.000000	0.000000	0.200000	0.000000	-0.300000	0.000000	0.000000	-0.000000	0.536999	507.803864	64.911903	0.209345	0.000000	-1.399043	0.000085	-1.883254	0.000000	-1.299434	456.929077	-61.797440	0.217635	0.000000	-0.967891	0.000026	1.570210	0.000004	-0.000000	-0.000000	0.000000	0.200000	0.000000	0.920000	0.000000	0.000000	-0.000000	-0.000000	-0.000000	0.000000	0.200000	0.000000	0.320000	0.000000	0.000000	-0.000000	
0.624500	-0.000000	-0.000000	0.000000	0.200000	0.000000	-0.300000	0.000000	0.000000	-0.000000	0.778309	507.167908	64.832314	0.209515	0.000000	-1.398922	0.000059	-1.766280	0.000002	-0.976576	457.407898	-61.958992	0.217687	0.000000	-0.968038	0.000015	1.503100	-0.000000	-0.000000	-0.000000	0.000000	0.200000	0.000000	0.920000	0.000000	0.000000	-0.000000	-0.000000	-0.000000	0.000000	0.200000	0.000000	0.320000	0.000000	0.000000	-0.000000	
0.625000	-0.000000	-0.000000	0.000000	0.200000	0.000000	-0.300000	0.000000	0.000000	-0.000000	1.019619	506.531982	64.752724	0.209685	0.000000	-1.398800	0.000013	-1.649248	-0.000001	-0.653719	457.886719	-62.120544	0.217740	0.000000	-0.968185	0.000034	1.435906	0.000005	-0.000000	-0.000000	0.000000	0.200000	0.000000	0.920000	0.000000	0.000000	-0.000000	-0.000000	-0.000000	0.000000	0.200000	0.000000	0.320000	0.000000	0.000000	-0.000000	
0.625500	-0.000000	-0.000000	0.000000	0.200000	0.000000	-0.300000	0.000000	0.000000	-0.000000	1.261438	507.006653	64.511414	0.209450	0.000000	-1.398602	0.000004	-1.684385	0.000009	-0.732696	456.124786	-61.637413	0.217834	0.000000	-0.968470	0.000036	1.519775	0.000005	-0.000000	-0.000000	0.000000	0.200000	0.000000	0.920000	0.000000	0.000000	-0.000000	-0.000000	-0.000000	0.000000	0.200000	0.000000	0.320000	0.000000	0.000000	-0.000000	
0.626000	-0.000000	-0.000000	0.000000	0.200000	0.000000	-0.300000	0.000000	0.000000	-0.000000	1.503257	507.481354	64.270103	0.209216	0.000000	-1.398405	-0.000003	-1.719566	-0.000000	-0.811673	454.362854	-61.154282	0.217930	0.000000	-0.968757	0.000012	1.603644	0.000003	-0.000000	-0.000000	0.000000	0.200000	0.000000	0.920000	0.000000	0.000000	-0.000000	-0.000000	-0.000000	0.000000	0.200000	0.000000	0.320000	0.000000	0.000000	-0.000000	
